<?xml version="1.0" encoding="utf-8"?><!-- Uploaded to: SVG Repo, www.svgrepo.com, Generator: SVG Repo Mixer Tools -->
<svg fill="#000000" width="800px" height="800px" viewBox="0 0 24 24" id="folder-alt" data-name="Flat Color" xmlns="http://www.w3.org/2000/svg" class="icon flat-color"><path id="primary" d="M17,6H11.83L9.4,3.56A2.05,2.05,0,0,0,8,3H4A2,2,0,0,0,2,5V20a1,1,0,0,0,1,1H18a1,1,0,0,0,1-1V8A2,2,0,0,0,17,6Z" style="fill: rgb(0, 0, 0);"></path><path id="secondary" d="M21.81,10.42A1,1,0,0,0,21,10H7a1,1,0,0,0-.91.59l-4,9A1,1,0,0,0,3,21H18a1,1,0,0,0,.95-.68l3-9A1,1,0,0,0,21.81,10.42Z" style="fill: rgb(44, 169, 188);"></path></svg>