<?xml version="1.0" encoding="utf-8"?><!-- Uploaded to: SVG Repo, www.svgrepo.com, Generator: SVG Repo Mixer Tools -->
<svg fill="#000000" width="800px" height="800px" viewBox="0 0 24 24" id="question" data-name="Flat Color" xmlns="http://www.w3.org/2000/svg" class="icon flat-color"><circle id="primary" cx="12" cy="12" r="10" style="fill: rgb(0, 0, 0);"></circle><path id="secondary" d="M16,9a3.41,3.41,0,0,1-2.29,3.39c-.71.34-.71.39-.71.61a1,1,0,0,1-2,0,2.6,2.6,0,0,1,1.84-2.42C13.61,10.21,14,10,14,9a1,1,0,0,0-.49-.86A2.82,2.82,0,0,0,12,7.75c-.69,0-2,.26-2,1.25A1,1,0,0,1,8,9c0-1.88,1.68-3.25,4-3.25S16,7.12,16,9Zm-4,6.5A1.5,1.5,0,1,0,13.5,17,1.5,1.5,0,0,0,12,15.5Z" style="fill: rgb(44, 169, 188);"></path></svg>