<?xml version="1.0" encoding="utf-8"?><!-- Uploaded to: SVG Repo, www.svgrepo.com, Generator: SVG Repo Mixer Tools -->
<svg fill="#000000" width="800px" height="800px" viewBox="0 0 24 24" id="music-folder" data-name="Flat Color" xmlns="http://www.w3.org/2000/svg" class="icon flat-color"><path id="secondary" d="M18,2H6A2,2,0,0,0,4,4V7A1,1,0,0,0,5,8H8.57l1.71,1.71A1,1,0,0,0,11,10h8a1,1,0,0,0,1-1V4A2,2,0,0,0,18,2Z" style="fill: rgb(44, 169, 188);"></path><path id="secondary-2" data-name="secondary" d="M21,12H18a1,1,0,0,0-1,1v3.18A3,3,0,1,0,19,19V14h2a1,1,0,0,0,0-2Z" style="fill: rgb(44, 169, 188);"></path><path id="primary" d="M21,10h0a2,2,0,0,0-2-2H11.4L9.7,6.29A1.05,1.05,0,0,0,9,6H4A2,2,0,0,0,2,8V20a2,2,0,0,0,2,2h7a1,1,0,0,0,1-1V13a2,2,0,0,1,2-2h6A1,1,0,0,0,21,10Z" style="fill: rgb(0, 0, 0);"></path></svg>