<?xml version="1.0" encoding="utf-8"?><!-- Uploaded to: SVG Repo, www.svgrepo.com, Generator: SVG Repo Mixer Tools -->
<svg fill="#000000" width="800px" height="800px" viewBox="0 0 24 24" id="link" data-name="Flat Color" xmlns="http://www.w3.org/2000/svg" class="icon flat-color"><path id="primary" d="M11.71,12.29a4,4,0,0,1,0,5.66L9.45,20.21a4,4,0,0,1-5.66-5.66l2.26-2.26A4.1,4.1,0,0,1,11.71,12.29Zm9-9a4.1,4.1,0,0,0-5.66,0L12.29,6.05A4,4,0,0,0,18,11.71L20.71,9a4,4,0,0,0,0-5.66Z" style="fill: rgb(0, 0, 0);"></path><path id="secondary" d="M10,15a1,1,0,0,1-.71-.29,1,1,0,0,1,0-1.42l4-4a1,1,0,0,1,1.42,1.42l-4,4A1,1,0,0,1,10,15Z" style="fill: rgb(44, 169, 188);"></path></svg>