<?xml version="1.0" encoding="utf-8"?><!-- Uploaded to: SVG Repo, www.svgrepo.com, Generator: SVG Repo Mixer Tools -->
<svg fill="#000000" width="800px" height="800px" viewBox="0 0 24 24" id="file-4" data-name="Flat Color" xmlns="http://www.w3.org/2000/svg" class="icon flat-color"><path id="primary" d="M19.71,8.29l-6-6A1,1,0,0,0,13,2H6A2,2,0,0,0,4,4V20a2,2,0,0,0,2,2H18a2,2,0,0,0,2-2V9A1,1,0,0,0,19.71,8.29Z" style="fill: rgb(0, 0, 0);"></path><path id="secondary" d="M13,2a1,1,0,0,1,.71.28l6,6A1,1,0,0,1,20,9H14a1,1,0,0,1-1-1Zm4,15a1,1,0,0,0-1-1H8a1,1,0,0,0,0,2h8A1,1,0,0,0,17,17Zm0-4a1,1,0,0,0-1-1H8a1,1,0,0,0,0,2h8A1,1,0,0,0,17,13Z" style="fill: rgb(44, 169, 188);"></path></svg>