<?xml version="1.0" standalone="no"?>
<!DOCTYPE svg PUBLIC "-//W3C//DTD SVG 20010904//EN"
 "http://www.w3.org/TR/2001/REC-SVG-20010904/DTD/svg10.dtd">
<svg version="1.0" xmlns="http://www.w3.org/2000/svg"
 width="1280.000000pt" height="1148.000000pt" viewBox="0 0 1280.000000 1148.000000"
 preserveAspectRatio="xMidYMid meet">
<metadata>
Created by potrace 1.15, written by Peter Selinger 2001-2017
</metadata>
<g transform="translate(0.000000,1148.000000) scale(0.100000,-0.100000)"
fill="#000000" stroke="none">
<path d="M6268 11448 c-6 -18 -33 -76 -60 -130 -120 -241 -262 -342 -297 -212
-14 53 -28 38 -20 -21 11 -80 44 -129 145 -209 97 -78 123 -110 155 -194 30
-80 37 -256 15 -375 -71 -376 -340 -734 -510 -677 -41 13 -100 77 -116 126
-13 37 -36 48 -25 12 28 -92 77 -184 196 -369 151 -233 206 -354 250 -552 44
-198 65 -604 38 -753 -28 -160 -85 -257 -179 -307 -51 -27 -61 -29 -140 -25
-93 5 -164 29 -268 89 -82 49 -249 218 -301 306 -45 77 -91 204 -91 253 0 17
-5 30 -11 30 -17 0 -2 -98 28 -189 59 -178 156 -349 483 -846 263 -400 302
-465 385 -636 88 -183 105 -250 105 -414 0 -110 -14 -293 -24 -302 -6 -7 -158
62 -255 115 -237 129 -338 273 -700 991 -218 432 -315 607 -406 727 -87 116
-206 227 -219 206 -3 -5 15 -24 40 -42 88 -63 181 -215 231 -377 24 -79 27
-104 27 -243 1 -171 -12 -222 -74 -308 -66 -91 -196 -124 -340 -88 -193 49
-562 285 -765 490 -121 121 -196 231 -300 437 -75 149 -158 284 -210 343 -38
41 -42 25 -7 -26 100 -145 39 -252 -175 -305 -103 -26 -328 -23 -462 6 -197
42 -342 113 -452 221 -77 76 -101 128 -118 265 -14 108 -39 163 -94 210 -54
46 -79 46 -38 0 38 -44 39 -59 4 -91 -46 -43 -122 -58 -278 -58 -249 1 -511
71 -781 210 -57 29 -104 49 -104 45 0 -4 39 -34 87 -66 339 -224 599 -522 659
-754 26 -103 -8 -159 -82 -131 -15 6 -29 8 -31 6 -11 -11 10 -25 58 -41 70
-24 133 -15 244 31 79 34 100 38 170 38 57 0 97 -6 139 -22 214 -79 442 -297
559 -536 58 -118 77 -183 77 -270 0 -124 -44 -166 -175 -166 -41 0 -75 -4 -75
-9 0 -5 52 -14 116 -22 93 -10 158 -10 328 -1 370 21 553 -17 901 -188 271
-133 410 -230 484 -340 127 -191 42 -380 -234 -515 -148 -72 -224 -89 -400
-90 -130 0 -157 3 -200 21 -27 12 -58 25 -67 29 -10 4 -18 3 -18 -3 0 -16 98
-53 200 -75 84 -19 128 -21 385 -21 188 0 381 6 550 19 321 23 783 27 895 6
156 -28 279 -88 463 -223 66 -49 67 -51 50 -70 -24 -28 -243 -172 -307 -202
-169 -82 -453 -97 -1106 -56 -265 17 -406 21 -610 17 -285 -5 -365 -16 -469
-63 -67 -30 -60 -45 7 -16 273 117 769 -43 889 -286 58 -118 30 -233 -86 -355
-142 -149 -569 -367 -853 -435 -113 -27 -114 -27 -448 -24 -320 3 -470 -6
-470 -28 0 -4 26 -6 59 -3 71 7 118 -8 156 -47 25 -26 30 -40 33 -97 6 -85
-11 -158 -59 -262 -106 -228 -298 -435 -494 -533 -146 -73 -257 -76 -410 -13
-69 29 -103 38 -146 38 -61 -1 -155 -35 -144 -53 4 -7 13 -7 26 1 11 5 34 9
52 7 92 -9 61 -168 -72 -370 -122 -184 -334 -386 -550 -523 -51 -32 -89 -61
-84 -62 6 -2 54 19 107 46 285 146 575 219 831 208 135 -5 206 -26 237 -68 19
-25 19 -28 4 -57 -9 -17 -24 -35 -33 -41 -10 -5 -14 -13 -10 -17 13 -14 91 53
118 102 20 35 32 79 43 156 21 150 56 213 157 293 168 132 404 205 664 205
141 0 236 -18 322 -60 120 -59 142 -149 62 -259 -48 -67 -28 -72 25 -6 60 77
130 194 211 354 155 309 318 481 670 706 338 216 553 257 683 132 86 -82 117
-186 109 -367 -8 -181 -55 -335 -144 -465 -40 -60 -126 -147 -153 -157 -8 -3
-12 -9 -8 -13 12 -12 73 32 135 99 134 143 232 308 513 866 355 705 443 828
692 961 127 69 234 116 243 108 13 -14 27 -216 22 -337 -5 -158 -20 -212 -111
-397 -73 -146 -144 -263 -393 -642 -307 -466 -405 -638 -463 -811 -30 -92 -48
-202 -33 -202 5 0 14 32 20 70 39 248 321 545 574 605 81 19 113 19 178 -1
105 -31 184 -139 216 -296 18 -91 20 -362 5 -519 -35 -344 -95 -512 -290 -814
-98 -151 -180 -306 -195 -367 -12 -47 9 -30 40 35 69 140 185 144 321 10 111
-109 218 -307 270 -498 58 -213 36 -473 -48 -562 l-21 -23 276 0 c152 0 277 2
277 5 0 2 -11 21 -25 41 -47 69 -60 135 -60 294 1 125 4 158 27 240 54 197
161 393 272 503 136 134 252 130 321 -10 31 -64 52 -83 41 -37 -16 63 -100
221 -195 367 -195 300 -256 472 -291 816 -15 152 -13 425 5 515 30 161 107
268 216 300 65 20 97 20 179 0 251 -59 534 -356 573 -602 6 -40 15 -72 20 -72
15 0 -3 110 -33 202 -58 173 -153 340 -470 823 -312 475 -397 622 -461 800
-29 82 -33 103 -37 237 -4 127 10 313 24 327 8 8 117 -40 242 -108 248 -133
339 -259 692 -961 280 -556 378 -723 513 -866 62 -67 123 -111 135 -99 4 4 0
10 -8 12 -8 3 -47 38 -86 77 -133 137 -214 354 -214 578 0 157 35 261 112 335
130 125 345 84 683 -132 352 -225 515 -397 670 -706 81 -160 151 -277 211
-354 53 -66 73 -61 25 6 -80 110 -58 200 62 259 86 42 181 60 322 60 260 0
496 -73 664 -205 101 -80 136 -143 157 -293 11 -77 23 -121 43 -156 27 -49
105 -116 118 -102 4 4 0 12 -10 17 -9 6 -24 24 -33 41 -15 29 -15 32 4 57 31
42 102 63 237 68 68 3 159 0 209 -6 194 -26 427 -102 622 -202 53 -27 101 -48
107 -46 5 1 -33 30 -84 62 -332 210 -620 545 -668 776 -20 95 7 132 81 112 56
-15 58 4 2 28 -74 33 -142 29 -249 -16 -153 -63 -264 -60 -410 13 -278 139
-555 518 -556 762 0 79 10 109 50 143 37 31 85 42 152 34 74 -9 59 10 -18 23
-44 7 -186 10 -403 8 -334 -3 -335 -3 -448 24 -199 48 -522 193 -716 322 -149
99 -242 221 -253 330 -16 162 160 337 422 419 85 27 207 47 281 47 57 0 190
-27 227 -46 16 -9 34 -13 40 -11 20 8 -93 54 -173 72 -128 29 -537 31 -950 5
-653 -41 -937 -26 -1106 56 -64 30 -283 174 -307 202 -17 19 -16 21 50 70 184
135 307 195 463 223 112 21 574 17 895 -6 169 -13 362 -19 550 -19 257 0 301
2 385 21 101 22 203 60 195 73 -3 4 -33 -4 -67 -19 -59 -24 -73 -26 -213 -26
-176 1 -253 18 -400 90 -217 106 -320 250 -286 400 35 155 187 284 536 455
348 171 531 209 901 188 170 -9 235 -9 328 1 64 8 116 17 116 22 0 5 -35 9
-77 9 -129 0 -175 45 -175 170 0 173 138 421 341 612 148 139 297 212 436 212
70 0 91 -4 170 -38 111 -46 174 -55 244 -31 47 15 69 30 59 40 -2 3 -18 1 -36
-4 -107 -31 -116 87 -22 268 111 213 326 433 603 616 48 32 87 61 87 66 0 4
-57 -21 -127 -56 -143 -72 -347 -143 -503 -176 -138 -29 -367 -32 -451 -6 -58
17 -109 55 -109 81 0 8 14 31 31 51 42 48 13 48 -40 -1 -55 -49 -77 -102 -95
-223 -19 -132 -48 -193 -126 -263 -166 -151 -405 -231 -690 -232 -159 0 -243
15 -329 58 -119 61 -138 148 -59 264 35 51 30 67 -7 26 -51 -58 -134 -193
-210 -343 -105 -207 -180 -316 -300 -437 -200 -202 -571 -440 -760 -489 -68
-17 -163 -19 -217 -5 -94 26 -176 135 -199 261 -18 101 -7 275 25 382 47 159
141 314 230 377 25 18 43 37 40 42 -13 21 -132 -90 -219 -206 -91 -121 -179
-278 -367 -651 -310 -617 -413 -790 -553 -930 -63 -63 -103 -93 -185 -137
-101 -55 -250 -122 -256 -115 -12 11 -25 218 -22 333 5 162 21 221 114 407 76
153 124 231 374 612 327 498 424 668 483 846 30 91 45 189 28 189 -6 0 -11
-13 -11 -29 0 -43 -38 -159 -72 -221 -46 -82 -108 -159 -191 -236 -133 -124
-260 -185 -397 -192 -79 -4 -89 -2 -140 25 -72 38 -123 105 -157 208 -23 72
-26 100 -31 269 -5 205 8 380 39 541 41 209 104 359 239 565 117 178 189 311
215 398 10 36 -12 25 -25 -12 -17 -51 -76 -114 -119 -127 -171 -51 -436 305
-507 678 -22 119 -15 295 15 375 32 84 58 116 155 194 101 80 134 129 145 209
8 59 -6 74 -20 21 -25 -91 -111 -68 -204 57 -43 57 -130 218 -153 285 l-11 32
-121 0 -121 0 -11 -32z m147 -399 c4 -11 24 -33 46 -49 l39 -28 -35 -21 c-19
-11 -40 -32 -47 -46 -6 -14 -14 -25 -18 -25 -4 0 -12 11 -18 25 -7 14 -28 35
-47 46 l-35 21 39 28 c22 16 42 38 46 49 3 12 10 21 15 21 5 0 12 -9 15 -21z
m24 -1225 c59 -114 246 -294 363 -350 l38 -18 -52 -28 c-145 -79 -308 -251
-383 -402 -3 -8 -7 -8 -10 0 -75 151 -238 323 -383 402 l-52 28 38 18 c117 56
304 236 363 350 19 36 36 66 39 66 3 0 20 -30 39 -66z m-4791 -1661 c12 -21
11 -23 -16 -23 -15 0 -45 -9 -67 -20 -22 -11 -40 -20 -41 -20 -1 0 -2 18 -2
39 0 22 -8 53 -17 70 l-16 31 38 0 c21 0 52 8 68 18 l30 19 5 -46 c3 -25 11
-56 18 -68z m9625 77 l38 0 -17 -32 c-9 -18 -17 -49 -18 -70 0 -21 -1 -38 -1
-38 -1 0 -18 9 -40 20 -22 11 -52 20 -67 20 -28 0 -28 0 -13 30 8 16 15 47 15
69 l0 41 33 -20 c17 -11 49 -20 70 -20z m-4863 -435 c0 -31 53 -119 98 -164
90 -90 233 -135 368 -114 64 9 66 9 43 -6 -86 -56 -232 -176 -312 -255 -87
-87 -197 -233 -197 -263 0 -7 -4 -13 -10 -13 -5 0 -10 6 -10 13 0 30 -107 173
-195 261 -81 80 -227 200 -314 257 -22 14 -19 14 49 5 193 -27 389 80 447 244
17 49 33 65 33 35z m-3275 -280 c24 -98 70 -212 105 -265 l30 -45 -103 -6
c-108 -7 -208 -27 -295 -59 -67 -25 -169 -77 -177 -90 -16 -26 -23 -1 -28 108
-7 160 -50 309 -122 423 l-34 54 122 7 c87 4 147 14 210 32 84 25 199 77 242
109 20 15 20 13 26 -91 3 -59 14 -138 24 -177z m6672 216 c108 -54 224 -82
359 -88 l121 -6 -38 -66 c-74 -128 -119 -294 -119 -442 0 -81 -8 -106 -25 -79
-8 13 -110 65 -177 90 -87 32 -187 52 -294 59 l-102 6 38 63 c40 66 92 216
110 316 5 33 10 95 10 139 l0 78 28 -19 c15 -11 55 -33 89 -51z m-4962 -1007
c29 -216 86 -389 168 -515 l16 -24 -97 -1 c-155 -3 -356 -57 -551 -150 -51
-24 -96 -44 -98 -44 -3 0 10 17 27 37 18 20 49 71 69 112 34 72 36 81 36 181
0 95 -3 110 -28 159 -15 30 -41 71 -57 91 l-30 38 37 -9 c191 -44 389 76 469
286 l19 50 3 -50 c1 -27 9 -100 17 -161z m3174 107 c81 -171 273 -271 444
-232 l37 9 -30 -38 c-59 -75 -84 -138 -88 -230 -3 -68 0 -98 17 -148 24 -69
59 -131 99 -174 14 -16 23 -28 20 -28 -3 0 -48 20 -99 44 -195 93 -396 147
-551 150 l-97 1 17 25 c57 87 93 177 131 328 25 97 50 264 51 342 1 49 3 52
12 30 7 -14 23 -49 37 -79z m-1809 -775 c0 -14 -35 -36 -58 -36 l-27 0 30 19
c28 18 55 26 55 17z m432 -16 l33 -20 -27 0 c-15 0 -34 7 -42 16 -31 31 -11
33 36 4z m-667 -130 c-18 -20 -55 -28 -55 -12 0 9 63 42 69 36 2 -2 -4 -13
-14 -24z m905 -12 c0 -14 -33 -9 -52 9 -29 26 -21 34 17 16 19 -9 35 -20 35
-25z m-1140 -376 c0 -15 -5 -34 -10 -42 -7 -11 -10 -2 -10 33 0 30 4 46 10 42
6 -3 10 -18 10 -33z m1340 -9 c0 -35 -3 -44 -10 -33 -16 25 -11 80 7 80 2 0 3
-21 3 -47z m-1340 -250 c0 -12 -4 -25 -10 -28 -6 -4 -10 11 -10 37 0 31 3 39
10 28 5 -8 10 -25 10 -37z m1337 -15 c-3 -20 -4 -21 -11 -5 -5 9 -5 29 0 45 7
25 8 26 11 5 3 -13 3 -33 0 -45z m-1104 -376 c29 -26 19 -32 -18 -11 -19 12
-32 25 -29 30 6 10 19 5 47 -19z m901 19 c3 -5 -10 -18 -29 -30 -41 -24 -47
-12 -9 18 30 24 31 24 38 12z m-2280 -225 c141 -46 248 -66 353 -66 l84 0 -19
-27 c-86 -122 -160 -376 -180 -623 -6 -61 -11 -88 -16 -75 -56 151 -150 253
-271 296 -59 21 -156 27 -215 14 l-34 -8 33 39 c19 21 46 63 60 94 23 48 26
68 26 155 -1 118 -21 180 -90 274 l-44 59 102 -49 c56 -26 151 -64 211 -83z
m3882 74 c-70 -95 -90 -156 -91 -275 0 -87 3 -107 26 -155 14 -31 41 -73 60
-94 l33 -39 -34 8 c-59 13 -155 7 -214 -14 -123 -43 -215 -143 -272 -296 -5
-13 -10 14 -16 75 -20 247 -94 501 -180 623 l-19 27 84 0 c156 0 376 58 562
149 55 27 101 50 102 50 2 1 -17 -26 -41 -59z m-2285 9 c11 -11 18 -23 15 -26
-5 -5 -76 35 -76 43 0 13 43 1 61 -17z m479 17 c0 -8 -71 -48 -76 -43 -10 9
35 47 56 47 11 0 20 -2 20 -4z m-255 -985 c13 -43 89 -146 166 -226 90 -94
177 -168 285 -241 l70 -49 -120 0 c-151 0 -208 -20 -296 -102 -56 -51 -110
-139 -110 -177 0 -9 -4 -16 -10 -16 -5 0 -10 7 -10 16 0 37 -57 129 -112 179
-86 80 -144 100 -294 100 l-120 0 70 49 c108 73 195 147 285 241 77 80 153
183 166 226 4 10 10 19 15 19 5 0 11 -9 15 -19z m-3613 -106 c111 -53 254 -87
374 -88 l101 -2 -22 -30 c-79 -105 -145 -329 -145 -491 0 -68 -9 -90 -25 -64
-11 18 -137 77 -220 103 -99 31 -224 50 -299 45 -31 -1 -56 -2 -56 -1 0 1 14
22 31 47 73 110 129 307 129 458 l0 99 29 -20 c16 -12 62 -37 103 -56z m7361
-255 c32 -107 59 -171 97 -227 17 -24 30 -45 30 -46 0 -1 -25 0 -56 1 -75 5
-200 -14 -299 -45 -83 -26 -209 -85 -220 -103 -16 -26 -25 -4 -25 64 0 162
-66 386 -145 491 l-22 30 101 2 c72 1 130 9 201 27 94 24 235 84 280 119 20
15 20 14 26 -106 5 -87 14 -146 32 -207z m-8540 -760 c40 0 44 -5 22 -34 -8
-11 -15 -39 -15 -63 0 -24 -1 -43 -3 -43 -1 0 -20 9 -42 20 -22 11 -52 20 -67
20 -28 0 -28 0 -12 25 9 13 16 44 16 69 l1 44 31 -19 c17 -10 48 -19 69 -19z
m9655 -5 c0 -25 7 -57 16 -70 16 -25 16 -25 -12 -25 -15 0 -45 -9 -67 -20 -22
-11 -41 -20 -42 -20 -2 0 -3 19 -3 43 0 24 -7 52 -15 63 -22 29 -18 34 23 34
29 0 69 16 98 39 0 1 1 -19 2 -44z m-4868 -889 c0 -27 103 -170 175 -241 71
-72 214 -175 241 -175 28 0 12 -16 -44 -42 -119 -57 -293 -231 -350 -350 -15
-31 -29 -57 -32 -57 -3 0 -18 26 -33 57 -59 121 -230 293 -349 350 -56 26 -72
42 -44 42 27 0 170 103 241 175 72 71 175 214 175 241 0 8 5 14 10 14 6 0 10
-6 10 -14z"/>
</g>
</svg>
