<?xml version="1.0" standalone="no"?>
<!DOCTYPE svg PUBLIC "-//W3C//DTD SVG 20010904//EN"
 "http://www.w3.org/TR/2001/REC-SVG-20010904/DTD/svg10.dtd">
<svg version="1.0" xmlns="http://www.w3.org/2000/svg"
 width="1280.000000pt" height="1096.000000pt" viewBox="0 0 1280.000000 1096.000000"
 preserveAspectRatio="xMidYMid meet">
<metadata>
Created by potrace 1.15, written by Peter Selinger 2001-2017
</metadata>
<g transform="translate(0.000000,1096.000000) scale(0.100000,-0.100000)"
fill="#000000" stroke="none">
<path d="M3152 10687 c-16 -34 -82 -173 -147 -309 l-117 -248 354 -592 354
-593 -647 -3 -647 -2 -167 -316 c-101 -190 -164 -321 -161 -331 3 -8 72 -125
151 -259 133 -223 148 -244 173 -244 15 0 434 -11 932 -25 498 -14 946 -25
996 -25 l91 0 539 -901 c296 -496 541 -905 542 -910 2 -5 -440 -9 -1076 -9
l-1079 0 -484 818 -485 817 -374 0 -375 0 -132 -260 c-73 -143 -132 -265 -133
-271 0 -7 146 -256 325 -555 l324 -544 -778 -3 -778 -2 -176 -284 c-98 -156
-177 -292 -177 -302 0 -10 80 -152 177 -316 l177 -298 723 0 c398 0 723 -3
723 -6 0 -4 -137 -215 -305 -471 -168 -255 -305 -466 -305 -468 0 -3 71 -142
157 -310 l157 -305 350 -2 350 -3 51 80 c28 44 249 396 490 783 l439 702 1098
0 c604 0 1098 -1 1098 -3 0 -2 -218 -367 -484 -813 -267 -445 -496 -828 -510
-851 l-25 -43 -978 7 -978 6 -179 -299 c-99 -164 -184 -306 -189 -315 -8 -12
28 -70 164 -262 l174 -247 657 0 657 0 -385 -642 c-213 -354 -388 -646 -389
-649 -2 -3 74 -140 169 -305 l172 -299 369 0 369 0 361 602 c198 331 362 602
365 602 3 0 122 -216 265 -481 143 -264 265 -486 270 -493 7 -10 108 -19 358
-35 192 -12 350 -20 352 -18 1 2 82 132 180 291 123 200 175 293 170 305 -3 9
-207 365 -453 791 -245 426 -446 782 -446 790 -1 19 1046 1772 1056 1768 4 -1
228 -370 497 -820 l489 -819 -122 -201 c-267 -439 -859 -1412 -863 -1419 -3
-6 360 -628 370 -634 1 0 139 9 307 20 l305 21 330 547 c182 300 333 543 337
540 3 -4 178 -295 388 -647 210 -352 383 -641 384 -641 0 -1 161 -5 356 -9
l355 -7 183 302 c101 167 182 310 179 319 -2 9 -162 281 -356 605 -193 324
-350 591 -347 593 3 3 262 -5 575 -18 314 -12 573 -20 574 -18 18 22 381 547
384 556 4 9 -313 572 -336 595 -3 4 -429 15 -946 24 -649 12 -944 20 -952 28
-8 8 -921 1531 -1000 1669 -2 4 457 7 1021 7 l1026 0 461 -773 c254 -424 467
-778 474 -786 11 -11 68 -12 338 -6 l325 7 185 278 185 277 -289 498 c-159
274 -289 500 -289 502 0 1 317 3 704 3 l704 0 196 314 c108 173 196 324 196
335 0 12 -88 140 -196 286 l-197 265 -713 0 c-393 0 -714 3 -714 6 0 3 144
246 321 540 176 294 319 539 317 544 -2 5 -91 139 -198 298 l-195 289 -65 7
c-36 3 -174 6 -306 6 l-242 0 -537 -845 -538 -845 -999 0 c-948 0 -998 1 -989
18 6 9 248 413 538 897 l528 880 940 3 941 2 162 276 162 276 -156 291 c-87
161 -158 293 -159 294 -1 2 -266 7 -589 12 -323 5 -590 12 -593 15 -3 2 151
265 342 582 217 361 345 584 342 596 -6 20 -366 646 -375 652 -4 2 -162 -10
-352 -28 l-345 -31 -338 -565 c-185 -311 -346 -580 -357 -598 l-20 -34 -316
529 c-174 290 -322 534 -329 542 -11 11 -69 11 -379 -5 l-365 -18 -154 -256
-154 -257 489 -866 490 -867 -514 -859 c-282 -473 -516 -856 -520 -853 -3 4
-248 412 -543 907 -295 495 -543 909 -550 920 -13 22 -66 -68 662 1137 l270
447 -159 263 c-88 145 -165 268 -171 275 -8 8 -120 17 -351 28 -186 9 -339 15
-341 13 -1 -2 -139 -222 -306 -490 -167 -269 -306 -488 -309 -488 -3 1 -161
263 -351 582 -308 518 -349 583 -375 589 -16 4 -194 9 -396 12 l-367 5 -29
-61z"/>
</g>
</svg>
