<?xml version="1.0" standalone="no"?>
<!DOCTYPE svg PUBLIC "-//W3C//DTD SVG 20010904//EN"
 "http://www.w3.org/TR/2001/REC-SVG-20010904/DTD/svg10.dtd">
<svg version="1.0" xmlns="http://www.w3.org/2000/svg"
 width="1280.000000pt" height="989.000000pt" viewBox="0 0 1280.000000 989.000000"
 preserveAspectRatio="xMidYMid meet">
<metadata>
Created by potrace 1.15, written by Peter Selinger 2001-2017
</metadata>
<g transform="translate(0.000000,989.000000) scale(0.100000,-0.100000)"
fill="#000000" stroke="none">
<path d="M6736 9715 c-44 -15 -90 -56 -114 -100 -15 -27 -18 -99 -22 -674 l-5
-643 -380 367 c-224 216 -394 374 -415 382 -22 10 -56 14 -97 11 -51 -3 -69
-9 -100 -34 -50 -40 -83 -105 -83 -165 0 -29 8 -61 23 -87 13 -25 167 -181
392 -399 204 -196 436 -422 518 -502 l147 -146 -2 -413 -3 -412 -229 215
c-126 119 -241 222 -256 230 -43 22 -104 29 -146 15 -94 -30 -144 -100 -144
-198 0 -51 5 -66 33 -106 17 -25 193 -197 390 -382 l357 -336 0 -456 0 -457
-53 55 c-28 30 -308 318 -622 640 -313 322 -616 633 -673 691 -60 61 -101 112
-98 120 2 8 7 138 11 289 3 151 10 392 15 535 15 425 15 567 -3 601 -38 73
-104 114 -184 114 -99 -1 -186 -73 -197 -163 -3 -23 -10 -208 -16 -412 -10
-369 -18 -567 -24 -572 -1 -2 -45 41 -97 95 -526 543 -889 907 -916 919 -118
49 -266 -35 -280 -158 -11 -101 -10 -103 345 -467 180 -185 399 -410 487 -500
l160 -165 -220 7 c-121 4 -350 11 -510 17 -306 10 -331 7 -392 -33 -42 -29
-83 -109 -83 -162 1 -93 70 -177 162 -195 29 -6 242 -15 473 -21 231 -6 546
-15 700 -20 l280 -9 65 -69 c36 -38 322 -331 635 -652 314 -321 605 -621 648
-666 l79 -84 -464 0 -464 0 -339 363 c-186 199 -354 373 -372 386 -47 35 -134
40 -195 13 -68 -30 -118 -109 -118 -186 1 -64 38 -115 251 -341 116 -124 209
-228 207 -231 -3 -2 -190 -1 -417 2 l-411 7 -77 81 c-43 45 -264 272 -491 506
-460 472 -477 486 -571 476 -67 -6 -126 -44 -158 -101 -31 -55 -31 -137 0
-193 12 -22 180 -201 372 -397 193 -196 352 -361 353 -366 2 -5 -253 -9 -618
-9 -600 0 -622 -1 -660 -20 -59 -30 -110 -111 -110 -174 0 -74 55 -155 125
-187 37 -17 82 -19 658 -19 339 0 617 -3 617 -6 0 -3 -163 -172 -362 -375
-200 -203 -373 -389 -386 -412 -33 -59 -28 -148 11 -204 64 -92 193 -116 281
-51 17 13 211 208 431 433 219 226 442 454 494 508 l96 97 412 -2 413 -3 -210
-220 c-116 -121 -219 -237 -230 -257 -27 -50 -27 -136 0 -188 49 -95 175 -134
272 -84 15 8 185 180 379 384 l352 370 327 0 c180 0 402 -3 493 -7 l167 -6
-113 -116 c-309 -320 -1194 -1237 -1271 -1318 l-88 -93 -693 0 c-491 0 -702
-3 -726 -11 -89 -30 -139 -101 -139 -197 0 -74 38 -140 102 -174 l43 -23 509
-3 509 -3 -140 -142 c-199 -203 -698 -720 -770 -798 -80 -87 -96 -138 -71
-223 26 -85 136 -157 216 -140 79 17 103 39 569 522 l468 485 5 -534 c4 -381
8 -540 17 -554 18 -32 76 -83 106 -94 72 -27 173 -4 224 51 54 58 53 39 53
825 l1 728 252 260 c138 143 442 458 676 700 233 242 444 460 467 485 l44 45
-1 -460 -1 -460 -366 -345 c-201 -190 -375 -360 -386 -379 -24 -42 -26 -133
-3 -176 20 -40 75 -91 110 -104 40 -15 112 -14 152 3 19 8 101 78 183 154 81
76 184 174 230 217 l82 77 0 -413 0 -414 -520 -503 c-347 -335 -527 -517 -541
-544 -30 -58 -23 -140 15 -198 53 -81 166 -110 256 -66 19 9 204 181 410 381
l375 363 5 -626 c6 -697 1 -656 74 -720 77 -67 185 -67 262 0 73 64 68 24 74
717 l5 623 370 -364 c306 -302 379 -368 418 -383 93 -35 199 5 245 95 32 61
28 153 -8 202 -14 19 -251 256 -527 528 l-503 493 0 415 0 415 78 -74 c284
-270 386 -362 417 -375 40 -17 112 -18 152 -3 38 14 92 67 109 106 18 41 18
124 0 167 -9 21 -145 156 -384 382 l-371 349 0 460 -1 460 158 -160 c348 -352
1277 -1308 1283 -1319 3 -6 2 -105 -2 -221 -4 -115 -10 -318 -14 -450 -4 -132
-10 -346 -14 -475 -9 -251 -5 -284 36 -338 50 -67 131 -94 214 -72 57 16 123
81 137 135 10 38 15 168 27 640 3 116 8 246 11 291 l6 81 197 -201 c108 -111
322 -329 474 -486 160 -164 295 -295 319 -307 69 -38 167 -25 226 30 59 55 80
161 46 233 -9 18 -227 250 -485 515 -258 265 -468 483 -466 484 1 1 234 -5
518 -13 l515 -16 50 25 c31 15 60 40 79 67 25 36 30 53 30 105 0 78 -26 131
-83 171 -40 28 -49 30 -180 37 -75 4 -407 15 -737 24 l-600 17 -150 151 c-317
321 -1291 1320 -1314 1348 l-24 29 457 0 457 0 27 -29 c531 -568 687 -730 717
-744 52 -25 132 -22 186 6 88 47 127 163 86 257 -8 19 -112 139 -231 265
l-215 230 412 3 412 3 125 -129 c69 -71 296 -308 505 -526 227 -237 394 -403
414 -412 62 -30 114 -30 175 0 69 34 105 85 113 158 10 95 0 107 -393 517
-197 205 -361 378 -363 383 -2 7 202 8 615 3 458 -5 630 -4 662 4 83 23 152
111 152 196 0 83 -68 172 -147 194 -25 7 -257 11 -662 11 l-624 0 367 370
c256 259 373 384 386 413 78 172 -104 343 -275 260 -16 -8 -259 -246 -540
-528 l-510 -514 -404 7 -404 7 212 223 c117 123 219 238 227 257 17 41 18 112
3 152 -13 35 -64 90 -104 110 -39 21 -131 21 -171 0 -36 -19 -42 -24 -427
-429 l-302 -318 -447 0 c-395 0 -480 4 -440 22 4 2 200 203 437 448 236 245
555 574 708 732 l279 288 713 2 713 3 38 31 c69 55 79 76 79 164 0 72 -2 81
-31 117 -16 21 -50 48 -74 61 -44 22 -45 22 -549 22 l-504 0 94 98 c52 53 267
276 479 495 212 219 395 415 407 435 30 49 31 137 3 192 -49 95 -174 135 -269
85 -25 -12 -191 -181 -780 -790 -107 -110 -198 -201 -202 -203 -5 -2 -9 228
-9 520 l0 523 -23 40 c-12 21 -42 53 -65 69 -37 26 -53 31 -105 31 -78 0 -131
-26 -172 -84 l-30 -43 -3 -740 -2 -741 -42 -46 c-23 -25 -346 -361 -718 -745
l-675 -700 -3 460 -3 459 64 60 c690 648 683 641 701 727 18 81 -58 195 -145
218 -51 14 -114 6 -154 -19 -17 -10 -126 -109 -243 -220 -117 -110 -215 -201
-217 -201 -3 0 -5 183 -4 408 l0 407 511 500 c296 290 518 516 529 537 23 44
25 125 5 171 -17 39 -71 92 -109 106 -45 17 -124 13 -165 -8 -20 -11 -202
-182 -404 -381 l-367 -361 -3 643 c-3 715 1 672 -72 736 -57 50 -128 63 -200
37z"/>
</g>
</svg>
