<?xml version="1.0" encoding="utf-8"?><!-- Uploaded to: SVG Repo, www.svgrepo.com, Generator: SVG Repo Mixer Tools -->
<svg fill="#000000" width="800px" height="800px" viewBox="0 0 24 24" id="download-alt-3" data-name="Flat Color" xmlns="http://www.w3.org/2000/svg" class="icon flat-color"><path id="secondary" d="M15.71,7.29a1,1,0,0,0-1.42,0L13,8.59V3a1,1,0,0,0-2,0V8.59L9.71,7.29A1,1,0,1,0,8.29,8.71l3,3a1,1,0,0,0,1.42,0l3-3A1,1,0,0,0,15.71,7.29Z" style="fill: rgb(44, 169, 188);"></path><path id="primary" d="M22,12.68,19.18,4.37A2,2,0,0,0,17.28,3H16a1,1,0,0,0,0,2h1.28l2.33,7H16a1,1,0,0,0-1,1,3,3,0,0,1-6,0,1,1,0,0,0-1-1H4.39L6.72,5H8A1,1,0,0,0,8,3H6.72a2,2,0,0,0-1.9,1.37L2.05,12.68A1.19,1.19,0,0,0,2,13v7a2,2,0,0,0,2,2H20a2,2,0,0,0,2-2V13A1.19,1.19,0,0,0,22,12.68Z" style="fill: rgb(0, 0, 0);"></path></svg>