<?xml version="1.0" encoding="utf-8"?><!-- Uploaded to: SVG Repo, www.svgrepo.com, Generator: SVG Repo Mixer Tools -->
<svg fill="#000000" width="800px" height="800px" viewBox="0 0 24 24" id="usb-flash-drive" data-name="Flat Color" xmlns="http://www.w3.org/2000/svg" class="icon flat-color"><rect id="secondary" x="8" y="2" width="8" height="6" rx="1" style="fill: rgb(44, 169, 188);"></rect><rect id="primary" x="6" y="6" width="12" height="16" rx="2" style="fill: rgb(0, 0, 0);"></rect><path id="secondary-2" data-name="secondary" d="M12,16a.93.93,0,0,1-.45-.11,1,1,0,0,1-.44-1.34l.27-.55H11a1,1,0,0,1-.89-1.45l1-2a1,1,0,0,1,1.78.9l-.27.55H13a1,1,0,0,1,.89,1.45l-1,2A1,1,0,0,1,12,16Z" style="fill: rgb(44, 169, 188);"></path></svg>