<?xml version="1.0" encoding="utf-8"?><!-- Uploaded to: SVG Repo, www.svgrepo.com, Generator: SVG Repo Mixer Tools -->
<svg fill="#000000" width="800px" height="800px" viewBox="0 0 24 24" id="package-alt" data-name="Flat Color" xmlns="http://www.w3.org/2000/svg" class="icon flat-color"><path id="primary" d="M20.49,6.63l-8-4.5a1,1,0,0,0-1,0l-8,4.5A1,1,0,0,0,3,7.5v9a1,1,0,0,0,.51.87l8,4.5a1,1,0,0,0,1,0l8-4.5A1,1,0,0,0,21,16.5v-9A1,1,0,0,0,20.49,6.63Z" style="fill: rgb(0, 0, 0);"></path><path id="secondary" d="M16,15a1,1,0,0,1-1-1V10.12L11.55,8.39a1,1,0,0,1,.9-1.78l4,2A1,1,0,0,1,17,9.5V14A1,1,0,0,1,16,15Z" style="fill: rgb(44, 169, 188);"></path></svg>